<svg width="85" height="80" viewBox="0 0 85 80" fill="none" xmlns="http://www.w3.org/2000/svg">
<rect x="0.246582" width="84.507" height="80" rx="40" fill="white"/>
<path d="M35.7338 20.2955C38.0129 22.2294 39.4538 25.4569 40.7538 28.0863C40.813 27.9727 40.8722 27.8592 40.9331 27.7422C43.4614 22.9039 43.4614 22.9039 45.0507 21.055C45.1213 20.9711 45.1919 20.8871 45.2647 20.8006C46.2032 19.7688 47.5387 19.2809 48.9085 19.1725C50.4298 19.1307 51.8515 19.6026 53.0097 20.6095C54.1212 21.6865 54.8011 22.9949 54.8559 24.5548C54.8755 26.0376 54.5291 27.4384 53.4915 28.55C53.4053 28.6342 53.319 28.7183 53.2302 28.805C53.143 28.8905 53.0557 28.9761 52.9659 29.0643C52.8998 29.1282 52.8337 29.1922 52.7655 29.2581C52.8762 29.2587 52.8762 29.2587 52.9891 29.2592C53.6845 29.2629 54.38 29.2685 55.0754 29.2761C55.4329 29.28 55.7904 29.2831 56.148 29.2846C56.4931 29.2861 56.8382 29.2894 57.1833 29.2941C57.3789 29.2963 57.5745 29.2965 57.7701 29.2967C57.8893 29.2986 58.0085 29.3005 58.1314 29.3025C58.2888 29.3038 58.2888 29.3038 58.4495 29.3051C58.7226 29.3558 58.7226 29.3558 58.9516 29.4988C59.1936 29.8696 59.1686 30.2021 59.1653 30.6362C59.1661 30.7261 59.167 30.816 59.1678 30.9087C59.1701 31.2059 59.1694 31.503 59.1685 31.8003C59.169 32.0068 59.1696 32.2133 59.1703 32.4198C59.1714 32.8526 59.1709 33.2853 59.1695 33.7181C59.1678 34.2732 59.1701 34.8281 59.1735 35.3831C59.1757 35.8095 59.1756 36.2359 59.1747 36.6623C59.1747 36.867 59.1753 37.0716 59.1768 37.2763C59.1785 37.5622 59.1771 37.848 59.1748 38.134C59.176 38.2187 59.1771 38.3035 59.1783 38.3908C59.1723 38.7712 59.1579 38.9638 58.9262 39.2747C58.6249 39.4144 58.6249 39.4144 57.6484 39.4144C57.6484 40.9613 57.6484 42.5081 57.6484 44.1019C58.1318 44.2469 58.1318 44.2469 58.6249 44.3949C60.7731 45.3881 62.2735 47.1081 63.1408 49.2899C63.9639 51.597 63.7293 54.0078 62.6899 56.2017C61.6484 58.2196 59.8461 59.7257 57.6926 60.4254C56.0452 60.9137 54.0712 61.0818 52.4385 60.4144C51.7529 60.1351 51.1693 60.0623 50.4334 60.0701C50.2657 60.0695 50.2657 60.0695 50.0945 60.0689C49.7224 60.0681 49.3504 60.07 48.9784 60.072C48.7106 60.0721 48.4428 60.0717 48.175 60.0713C47.5997 60.0707 47.0244 60.0714 46.4492 60.0731C45.6169 60.0754 44.7846 60.0751 43.9524 60.0741C42.6011 60.0724 41.2499 60.0722 39.8987 60.0731C39.7775 60.0732 39.7775 60.0732 39.654 60.0733C38.7522 60.074 37.8505 60.0749 36.9487 60.0759C36.6212 60.0763 36.2937 60.0766 35.9662 60.077C35.8854 60.077 35.8045 60.0771 35.7213 60.0772C34.3742 60.0786 33.027 60.0781 31.6799 60.0762C30.8495 60.0751 30.0191 60.0756 29.1887 60.0784C28.6203 60.0801 28.0519 60.0801 27.4835 60.0788C27.1554 60.0781 26.8275 60.0784 26.4995 60.0804C26.1441 60.0824 25.7888 60.0814 25.4334 60.0797C25.3296 60.081 25.2257 60.0823 25.1187 60.0836C24.6737 60.0786 24.4203 60.0662 24.0392 59.8234C23.8077 59.4479 23.7927 59.1373 23.8006 58.7091C23.8002 58.6266 23.7997 58.544 23.7993 58.4589C23.7985 58.1824 23.8012 57.906 23.8039 57.6294C23.804 57.4312 23.8039 57.2329 23.8036 57.0346C23.8035 56.4963 23.8064 55.9581 23.8098 55.4198C23.8128 54.8573 23.8131 54.2948 23.8137 53.7323C23.8152 52.667 23.8192 51.6018 23.8241 50.5366C23.8296 49.3238 23.8323 48.1111 23.8347 46.8984C23.8398 44.4037 23.8484 41.9091 23.8593 39.4144C23.7945 39.4201 23.7296 39.4257 23.6628 39.4316C23.2228 39.454 22.9621 39.4642 22.5814 39.2253C22.328 38.8197 22.3263 38.5144 22.3328 38.0447C22.3321 37.9569 22.3314 37.869 22.3307 37.7785C22.3291 37.4886 22.331 37.1988 22.333 36.9089C22.333 36.7071 22.3327 36.5054 22.3323 36.3036C22.332 35.881 22.3335 35.4584 22.3362 35.0358C22.3395 34.4943 22.3389 33.9529 22.3371 33.4113C22.336 32.9948 22.3369 32.5783 22.3384 32.1617C22.3389 31.9621 22.3388 31.7624 22.3382 31.5627C22.3377 31.2836 22.3397 31.0046 22.3424 30.7255C22.3417 30.6431 22.3411 30.5607 22.3404 30.4758C22.3465 30.0998 22.3724 29.8843 22.5561 29.5489C22.8468 29.3037 22.9986 29.2937 23.3763 29.2914C23.4955 29.2895 23.6147 29.2876 23.7376 29.2856C23.8659 29.286 23.9942 29.2864 24.1263 29.2868C24.2593 29.2855 24.3923 29.284 24.5253 29.2823C24.8747 29.2784 25.224 29.2774 25.5734 29.277C25.9301 29.2761 26.2869 29.2724 26.6436 29.269C27.3431 29.2627 28.0426 29.2595 28.7421 29.2581C28.6815 29.1983 28.6209 29.1385 28.5584 29.0769C28.479 28.9981 28.3996 28.9193 28.3178 28.8382C28.1997 28.7213 28.1997 28.7213 28.0792 28.602C27.0776 27.5691 26.6614 26.2097 26.6486 24.7965C26.6749 23.2423 27.2325 21.9111 28.3149 20.783C30.3336 18.9004 33.4898 18.5757 35.7338 20.2955Z" fill="#342FAA"/>
<path d="M45.1484 39.4141C48.7578 39.4141 52.3672 39.4141 56.0859 39.4141C56.0859 40.8643 56.0859 42.3145 56.0859 43.8086C55.4092 43.8086 54.7324 43.8086 54.0352 43.8086C53.2188 43.9004 53.2188 43.9004 52.4879 44.237C52.2936 44.5082 52.3407 44.7581 52.375 45.0781C52.4582 45.2834 52.4582 45.2834 52.668 45.3711C53.0192 45.3938 53.3165 45.4018 53.6586 45.3226C55.6075 44.9787 57.5619 45.4303 59.1892 46.5311C60.7049 47.6872 61.761 49.3288 62.043 51.2305C62.1514 53.3113 61.7534 55.1786 60.3828 56.7969C60.3143 56.8915 60.2458 56.9862 60.1753 57.0837C59.2122 58.2094 57.5197 59.0869 56.0344 59.2257C54.0669 59.3283 52.2996 59.03 50.7148 57.7734C50.6334 57.7092 50.5519 57.645 50.468 57.5789C49.4653 56.7353 48.7923 55.6904 48.3711 54.4531C48.34 54.3679 48.3089 54.2827 48.2769 54.1949C47.7258 52.4198 48.0483 50.5174 48.8594 48.8867C48.8916 48.8867 48.9238 48.8867 48.957 48.8867C48.9618 48.9656 48.9666 49.0446 48.9715 49.1259C48.9788 49.2303 48.9861 49.3346 48.9937 49.4421C49.0038 49.5968 49.0038 49.5968 49.0143 49.7546C49.0539 50.0524 49.1157 50.2789 49.25 50.5469C49.5511 50.6974 49.7977 50.6736 50.1289 50.6445C50.3533 50.4277 50.417 50.2959 50.4528 49.9846C50.4487 49.8326 50.4487 49.8326 50.4444 49.6775C50.4403 49.5087 50.4403 49.5087 50.4361 49.3365C50.4314 49.2203 50.4267 49.1041 50.4219 48.9844C50.4181 48.8738 50.4142 48.7633 50.4103 48.6494C50.3963 48.3191 50.3763 47.9897 50.3547 47.6599C50.3469 47.4918 50.3469 47.4918 50.3389 47.3202C50.3046 46.7004 50.3046 46.7004 50.0171 46.168C49.3272 45.8877 48.454 46.3129 47.7675 46.5191C47.5649 46.5797 47.3619 46.6388 47.1588 46.6978C47.0293 46.7364 46.8999 46.7751 46.7704 46.8138C46.6536 46.8485 46.5367 46.8831 46.4163 46.9189C46.1405 47.0253 46.0056 47.0901 45.832 47.3242C45.7263 47.6084 45.7263 47.6084 45.7344 47.9102C45.8684 48.1582 45.8684 48.1582 46.125 48.3008C46.5908 48.3447 47.0319 48.2783 47.4922 48.2031C47.4519 48.324 47.4116 48.4448 47.3701 48.5693C47.3436 48.6502 47.317 48.731 47.2896 48.8142C47.229 48.9937 47.1657 49.1723 47.0997 49.3498C46.3281 51.4825 46.4723 53.8656 47.4012 55.9274C47.815 56.7729 48.3653 57.5233 49.0123 58.2056C49.1523 58.3594 49.1523 58.3594 49.1523 58.457C47.8311 58.457 46.5098 58.457 45.1484 58.457C45.1484 52.1729 45.1484 45.8887 45.1484 39.4141Z" fill="#6DB1E9"/>
<path d="M25.4219 39.4141C29.0312 39.4141 32.6406 39.4141 36.3594 39.4141C36.3594 45.6982 36.3594 51.9824 36.3594 58.457C32.75 58.457 29.1406 58.457 25.4219 58.457C25.4219 52.1729 25.4219 45.8887 25.4219 39.4141Z" fill="#6EB2EA"/>
<path d="M37.9219 39.4141C39.791 39.4141 41.6602 39.4141 43.5859 39.4141C43.5859 45.6982 43.5859 51.9824 43.5859 58.457C41.7168 58.457 39.8477 58.457 37.9219 58.457C37.9219 52.1729 37.9219 45.8887 37.9219 39.4141Z" fill="#DCF5F9"/>
<path d="M45.7344 30.918C49.6338 30.918 53.5332 30.918 57.5508 30.918C57.5508 33.2061 57.5508 35.4941 57.5508 37.8516C53.6514 37.8516 49.752 37.8516 45.7344 37.8516C45.7344 35.5635 45.7344 33.2754 45.7344 30.918Z" fill="#6DB1E9"/>
<path d="M23.957 30.918C27.8564 30.918 31.7559 30.918 35.7734 30.918C35.7734 33.2061 35.7734 35.4941 35.7734 37.8516C31.874 37.8516 27.9746 37.8516 23.957 37.8516C23.957 35.5635 23.957 33.2754 23.957 30.918Z" fill="#6DB1E9"/>
<path d="M34.8945 21.6404C35.4503 22.1874 35.9019 22.8095 36.3289 23.4592C36.4164 23.5917 36.4164 23.5917 36.5056 23.7269C39.582 28.4478 39.582 28.4478 39.582 29.3552C31.4738 29.5047 31.4738 29.5047 29.6123 27.9758C28.6932 27.0736 28.25 26.0368 28.2051 24.7532C28.2454 23.5431 28.7719 22.5424 29.6394 21.7136C31.1931 20.3987 33.2919 20.4599 34.8945 21.6404Z" fill="#DBF4F8"/>
<path d="M51.4736 21.3901C52.4061 22.045 52.9487 22.8965 53.2539 23.9845C53.3794 25.286 53.1986 26.3712 52.3994 27.4452C51.1817 28.8444 49.4252 28.9715 47.6875 29.1603C47.547 29.1758 47.547 29.1758 47.4036 29.1916C45.6107 29.3815 43.8237 29.3773 42.0234 29.3556C42.1978 28.8103 42.4267 28.3161 42.6826 27.8053C42.7292 27.7122 42.7759 27.6192 42.8239 27.5233C45.7625 21.7418 45.7625 21.7418 48.0781 20.8595C49.212 20.4958 50.4779 20.7998 51.4736 21.3901Z" fill="#DBF4F8"/>
<path d="M37.2383 30.918C39.5586 30.918 41.8789 30.918 44.2695 30.918C44.2695 33.2061 44.2695 35.4941 44.2695 37.8516C41.9492 37.8516 39.6289 37.8516 37.2383 37.8516C37.2383 35.5635 37.2383 33.2754 37.2383 30.918Z" fill="#DBF4F8"/>
<path d="M55.4025 45.8595C55.6633 46.0593 55.7819 46.1662 55.826 46.4966C55.8189 46.5893 55.8118 46.682 55.8045 46.7776C55.7981 46.8833 55.7916 46.9891 55.7849 47.0981C55.7767 47.2123 55.7684 47.3265 55.7599 47.4441C55.49 49.938 55.49 49.938 56.1446 52.2447C56.6998 52.8545 57.4614 53.1973 58.2315 53.457C58.5521 53.5841 58.7651 53.7294 59.0157 53.965C59.1195 54.2518 59.1195 54.2518 59.1134 54.5509C58.9669 54.8256 58.9669 54.8256 58.7228 55.0392C58.4093 55.1312 58.1674 55.1892 57.8564 55.0622C57.6555 54.9434 57.4663 54.8146 57.2762 54.6791C57.2057 54.631 57.1351 54.5829 57.0624 54.5334C56.9121 54.4309 56.7623 54.3277 56.6129 54.2238C56.3742 54.0593 56.1329 53.8992 55.8904 53.7403C55.7318 53.6362 55.5732 53.532 55.4147 53.4279C55.3398 53.3787 55.2649 53.3295 55.1878 53.2788C55.1179 53.2323 55.048 53.1858 54.976 53.1379C54.9144 53.0972 54.8529 53.0565 54.7895 53.0145C54.6065 52.8799 54.4691 52.7777 54.3282 52.5978C54.2904 52.3242 54.2904 52.3242 54.2888 51.988C54.2875 51.8622 54.2863 51.7364 54.285 51.6068C54.2852 51.4693 54.2855 51.3318 54.2859 51.1944C54.2854 51.0534 54.2849 50.9124 54.2843 50.7715C54.2835 50.476 54.2837 50.1806 54.2847 49.8851C54.2858 49.5067 54.2838 49.1283 54.281 48.7499C54.2792 48.4588 54.2792 48.1677 54.2798 47.8765C54.2798 47.737 54.2792 47.5975 54.278 47.458C54.2765 47.2629 54.2778 47.0677 54.2792 46.8725C54.2793 46.7615 54.2793 46.6505 54.2793 46.5361C54.3896 45.8918 54.8037 45.774 55.4025 45.8595Z" fill="#342EAA"/>
</svg>
