<svg width="85" height="80" viewBox="0 0 85 80" fill="none" xmlns="http://www.w3.org/2000/svg">
<rect x="0.246582" width="84.507" height="80" rx="40" fill="white"/>
<g clip-path="url(#clip0_2101_30888)">
<path d="M43.7632 25.0528C43.9671 25.2149 44.1672 25.3805 44.3674 25.5472C44.4526 25.6163 44.5379 25.6854 44.6257 25.7566C46.643 27.469 47.9134 29.9996 48.3713 32.5785C48.3713 32.6751 48.3713 32.7718 48.3713 32.8714C48.9192 32.8714 49.467 32.8714 50.0315 32.8714C50.0959 32.7103 50.1604 32.5492 50.2268 32.3832C50.5625 32.1594 50.688 32.1628 51.0831 32.161C51.1989 32.1601 51.3146 32.1592 51.4338 32.1582C51.6215 32.1583 51.6215 32.1583 51.8129 32.1585C52.0057 32.1578 52.0057 32.1578 52.2023 32.1572C52.4743 32.1565 52.7464 32.1565 53.0184 32.157C53.3664 32.1576 53.7143 32.1559 54.0623 32.1537C54.3949 32.1519 54.7274 32.1522 55.06 32.1524C55.1847 32.1515 55.3095 32.1506 55.438 32.1496C55.5543 32.1503 55.6706 32.1509 55.7905 32.1515C55.8926 32.1514 55.9947 32.1514 56.0999 32.1513C56.5343 32.2082 56.7865 32.3976 57.0871 32.7066C57.2783 33.0002 57.3325 33.2074 57.3557 33.555C57.3235 33.6195 57.2912 33.6839 57.258 33.7503C57.3346 33.7495 57.4112 33.7486 57.4901 33.7477C58.2141 33.7399 58.9382 33.7339 59.6623 33.7301C60.0345 33.7281 60.4066 33.7253 60.7788 33.7209C61.1385 33.7166 61.4981 33.7143 61.8578 33.7133C61.9945 33.7126 62.1313 33.7112 62.268 33.709C63.0476 33.6974 63.6289 33.7044 64.2893 34.141C64.7784 34.6558 64.9041 35.0525 64.8874 35.7523C64.8856 35.9041 64.8838 36.056 64.8821 36.2078C64.8808 36.2881 64.8796 36.3684 64.8783 36.4511C64.873 36.879 64.875 37.3068 64.876 37.7346C64.8772 38.278 64.8762 38.821 64.8652 39.3643C64.7098 41.4283 64.7098 41.4283 65.4474 43.2417C65.8038 43.5319 66.1798 43.7267 66.6032 43.9011C67.1263 44.1408 67.6796 44.5328 67.9405 45.0576C68.2023 46.0048 67.9506 47.0247 67.6935 47.9433C67.6619 48.0609 67.6304 48.1785 67.5978 48.2997C67.5313 48.5459 67.464 48.7919 67.3958 49.0377C67.2921 49.4126 67.1911 49.7881 67.0904 50.1638C67.0251 50.4043 66.9596 50.6448 66.894 50.8852C66.8489 51.0522 66.8489 51.0522 66.803 51.2225C66.5196 52.2382 66.1803 53.0855 65.2811 53.697C64.8948 53.9116 64.5693 53.9816 64.1306 54.0262C63.8044 54.0773 63.6558 54.1024 63.4379 54.3551C63.3438 54.5228 63.2535 54.6927 63.1666 54.8643C62.5577 55.9952 61.4356 56.7591 60.2244 57.1234C59.2378 57.3163 58.1359 57.3425 57.258 56.7972C56.5943 56.3188 56.0825 55.7561 55.8909 54.9418C55.8909 54.6517 55.8909 54.3617 55.8909 54.0628C50.4123 54.0628 44.9338 54.0628 39.2893 54.0628C39.2248 54.2562 39.1604 54.4496 39.094 54.6488C38.8922 54.9634 38.653 55.2438 38.4104 55.5277C38.359 55.5885 38.3077 55.6493 38.2547 55.7119C37.465 56.5733 36.3476 57.1433 35.1828 57.2184C34.1869 57.258 33.3779 57.1596 32.5693 56.5287C32.0034 55.9975 31.709 55.4069 31.5745 54.6488C31.5719 54.4535 31.5714 54.2581 31.5745 54.0628C31.471 54.0649 31.3676 54.0669 31.261 54.069C30.8756 54.0761 30.4901 54.0806 30.1046 54.0843C29.9381 54.0863 29.7716 54.0889 29.6051 54.0923C29.3651 54.0971 29.1251 54.0993 28.8851 54.101C28.8112 54.103 28.7373 54.105 28.6612 54.1071C28.1553 54.1073 27.8768 54.0018 27.4729 53.6722C27.172 53.3212 27.1504 53.024 27.1568 52.5695C27.2027 52.0443 27.3536 51.5433 27.4935 51.0366C27.5255 50.9174 27.5576 50.7982 27.5906 50.6754C27.6582 50.4247 27.7263 50.1741 27.795 49.9237C27.883 49.6034 27.9696 49.2827 28.0557 48.9619C28.1384 48.6544 28.2218 48.3471 28.3053 48.0398C28.3518 47.8675 28.3518 47.8675 28.3993 47.6918C28.4286 47.5852 28.4579 47.4785 28.4881 47.3687C28.5137 47.2751 28.5393 47.1814 28.5657 47.085C28.7499 46.5058 28.7499 46.5058 29.0232 46.3236C29.2307 46.2503 29.2307 46.2503 29.6213 46.2503C29.6897 45.9841 29.7566 45.7176 29.8227 45.4508C29.8422 45.3757 29.8616 45.3006 29.8817 45.2232C30.0252 44.6607 30.0252 44.6607 29.9143 44.1019C29.7478 43.927 29.7478 43.927 29.5298 43.7845C27.0393 41.9472 25.6385 39.2856 25.0719 36.2787C24.725 33.0189 25.4092 29.8849 27.445 27.2833C31.4004 22.476 38.6598 21.1278 43.7632 25.0528Z" fill="#E4636D"/>
<path d="M51.8318 32.13C51.9601 32.13 52.0883 32.13 52.2203 32.13C52.4913 32.1301 52.7621 32.132 53.033 32.1351C53.3794 32.1389 53.7258 32.1394 54.0723 32.1386C54.4038 32.1382 54.7352 32.1403 55.0667 32.1422C55.2529 32.1422 55.2529 32.1422 55.4428 32.1423C55.5585 32.1438 55.6742 32.1454 55.7934 32.147C55.9457 32.1482 55.9457 32.1482 56.1011 32.1495C56.5336 32.2094 56.787 32.3985 57.087 32.7068C57.2782 33.0004 57.3323 33.2075 57.3555 33.5552C57.3233 33.6196 57.2911 33.6841 57.2579 33.7505C57.3727 33.7492 57.3727 33.7492 57.4899 33.7479C58.2139 33.74 58.938 33.7341 59.6621 33.7302C60.0343 33.7282 60.4065 33.7255 60.7786 33.721C61.1383 33.7167 61.4979 33.7144 61.8576 33.7134C61.9943 33.7127 62.1311 33.7113 62.2678 33.7092C63.0474 33.6976 63.6287 33.7045 64.2891 34.1411C64.7782 34.656 64.9039 35.0526 64.8873 35.7524C64.8854 35.9043 64.8836 36.0561 64.8819 36.208C64.8806 36.2882 64.8794 36.3685 64.8782 36.4513C64.8729 36.8791 64.8748 37.3069 64.8758 37.7347C64.877 38.2781 64.876 38.8211 64.865 39.3644C64.7097 41.4284 64.7097 41.4284 65.4473 43.2419C65.8036 43.532 66.1796 43.7269 66.603 43.9012C67.1261 44.1409 67.6794 44.5329 67.9403 45.0578C68.2021 46.005 67.9504 47.0249 67.6934 47.9434C67.6618 48.061 67.6302 48.1786 67.5976 48.2998C67.5311 48.546 67.4638 48.792 67.3957 49.0378C67.2919 49.4127 67.1909 49.7882 67.0903 50.164C67.0249 50.4045 66.9594 50.6449 66.8938 50.8853C66.8638 50.9966 66.8337 51.1079 66.8028 51.2226C66.5194 52.2383 66.1801 53.0856 65.2809 53.6972C64.8946 53.9117 64.5691 53.9818 64.1304 54.0264C63.8042 54.0774 63.6556 54.1026 63.4377 54.3552C63.3436 54.5229 63.2534 54.6929 63.1665 54.8645C62.5575 55.9954 61.4354 56.7592 60.2242 57.1235C59.2376 57.3165 58.1357 57.3426 57.2579 56.7974C56.5942 56.319 56.0823 55.7563 55.8907 54.9419C55.8907 54.6518 55.8907 54.3618 55.8907 54.063C50.4122 54.063 44.9336 54.063 39.2891 54.063C39.1924 54.353 39.1924 54.353 39.0938 54.6489C38.8921 54.9635 38.6529 55.2439 38.4102 55.5278C38.3588 55.5886 38.3075 55.6494 38.2546 55.7121C37.4649 56.5734 36.3474 57.1435 35.1826 57.2185C34.1868 57.2582 33.3777 57.1598 32.5691 56.5288C32.0032 55.9976 31.7088 55.407 31.5743 54.6489C31.5717 54.4536 31.5712 54.2583 31.5743 54.063C31.4708 54.065 31.3674 54.0671 31.2608 54.0692C30.8754 54.0763 30.4899 54.0807 30.1044 54.0844C29.9379 54.0864 29.7714 54.0891 29.6049 54.0925C29.3649 54.0972 29.125 54.0994 28.8849 54.1011C28.811 54.1031 28.7372 54.1052 28.661 54.1072C28.1551 54.1075 27.8766 54.002 27.4727 53.6724C27.1718 53.3213 27.1502 53.0242 27.1566 52.5696C27.2025 52.0444 27.3535 51.5434 27.4933 51.0368C27.5254 50.9176 27.5574 50.7984 27.5904 50.6755C27.6581 50.4248 27.7261 50.1742 27.7949 49.9238C27.8828 49.6035 27.9694 49.2829 28.0556 48.9621C28.1382 48.6546 28.2217 48.3473 28.3051 48.04C28.3361 47.9251 28.3671 47.8103 28.3991 47.6919C28.4431 47.532 28.4431 47.532 28.4879 47.3688C28.5135 47.2752 28.5391 47.1816 28.5655 47.0851C28.7466 46.5158 28.7466 46.5158 29.0108 46.3176C29.321 46.2228 29.5075 46.2516 29.8165 46.3481C30.0545 46.5557 30.0545 46.5557 30.2071 46.8364C30.1594 47.4978 29.9658 48.1425 29.8043 48.7834C29.7594 48.9624 29.7594 48.9624 29.7136 49.145C29.4192 50.3053 29.0849 51.4512 28.7422 52.5981C29.8057 52.5981 30.8692 52.5981 31.9649 52.5981C32.0616 52.3081 32.0616 52.3081 32.1602 52.0122C32.362 51.6976 32.6015 51.4175 32.8438 51.1333C32.8929 51.0736 32.942 51.014 32.9926 50.9525C33.3458 50.5598 33.7564 50.292 34.211 50.0286C34.2678 49.9956 34.3246 49.9626 34.3831 49.9286C35.3444 49.395 36.4667 49.3079 37.5359 49.5368C38.3264 49.8229 38.9015 50.3122 39.283 51.0601C39.5452 51.6324 39.5821 51.9201 39.5821 52.5981C43.2559 52.5981 46.9297 52.5981 50.7149 52.5981C50.7794 52.2436 50.8438 51.8892 50.9102 51.5239C50.9789 51.2724 51.0519 51.022 51.1299 50.7732C51.3406 50.0847 51.5203 49.3912 51.6915 48.6919C51.8543 48.0278 52.0225 47.3682 52.2225 46.7143C52.4466 45.9803 52.6312 45.2379 52.8145 44.4927C53.0138 43.6827 53.2206 42.879 53.4645 42.0814C53.6732 41.3898 53.8407 40.6884 54.0127 39.987C54.1698 39.3515 54.3428 38.7242 54.5336 38.0982C54.7156 37.4922 54.8671 36.8796 55.0179 36.2651C55.5307 34.1774 55.5307 34.1774 55.793 33.6528C55.7278 33.6537 55.6626 33.6546 55.5955 33.6555C54.9175 33.6641 54.2395 33.67 53.5614 33.6743C53.3083 33.6762 53.0552 33.6789 52.8021 33.6823C52.4385 33.687 52.0749 33.6892 51.7113 33.691C51.5413 33.694 51.5413 33.694 51.3679 33.6971C51.2623 33.6971 51.1568 33.6971 51.048 33.6972C50.9088 33.6985 50.9088 33.6985 50.7668 33.6998C50.4445 33.6386 50.3316 33.5149 50.129 33.2622C50.0252 32.9753 50.0252 32.9753 50.0313 32.6763C50.4541 32.0019 51.1039 32.1206 51.8318 32.13Z" fill="#020101"/>
<path d="M36.3591 25.9376C36.176 26.316 36.176 26.316 36.0662 26.4259C36.0487 26.6309 36.04 26.8367 36.0356 27.0423C36.032 27.1548 36.0283 27.2672 36.0246 27.383C36.0407 27.7022 36.0407 27.7022 36.2447 27.9289C36.4537 28.1098 36.4537 28.1098 36.7559 28.1288C37.0338 28.1073 37.0338 28.1073 37.2056 27.9823C37.4035 27.6945 37.3704 27.4028 37.3601 27.0668C37.3578 26.8736 37.3578 26.8736 37.3555 26.6765C37.3403 26.4095 37.3182 26.1903 37.238 25.9376C39.1257 25.8876 41.013 26.7536 42.4138 27.9884C42.597 28.1774 42.7484 28.3602 42.9021 28.5743C42.8316 28.5421 42.7611 28.5099 42.6885 28.4767C42.3982 28.3735 42.2302 28.3431 41.9255 28.379C41.7055 28.535 41.7055 28.535 41.506 28.7586C41.4264 28.8414 41.3469 28.9241 41.2649 29.0094C41.1802 29.0997 41.0954 29.19 41.0081 29.2831C40.8729 29.4229 40.7377 29.5627 40.6023 29.7023C40.2688 30.047 39.9379 30.3943 39.6085 30.7429C39.4234 30.9385 39.2371 31.1328 39.0493 31.3257C38.8725 31.5076 38.6978 31.6914 38.5253 31.8774C37.9403 32.4743 37.9403 32.4743 37.6042 32.4924C37.3972 32.4405 37.3972 32.4405 37.0427 32.2853C36.3465 32.2067 35.8696 32.3905 35.2849 32.7735C34.8886 33.117 34.6656 33.5488 34.5037 34.0431C34.4811 34.3927 34.4698 34.6886 34.5544 35.0278C34.6089 35.2694 34.6302 35.4564 34.6013 35.7032C34.3917 36.0216 34.1198 36.2551 33.8323 36.5028C33.2715 36.9691 33.2715 36.9691 32.9343 37.5919C32.9255 37.8537 32.9255 37.8537 33.0388 38.0836C33.2343 38.2669 33.2343 38.2669 33.5454 38.3094C34.1802 38.195 34.5197 37.7475 34.9519 37.2924C35.0805 37.1584 35.0805 37.1584 35.2117 37.0216C35.2907 36.936 35.3698 36.8504 35.4512 36.7622C35.6755 36.5821 35.6755 36.5821 35.8586 36.6012C35.9271 36.6271 35.9956 36.6531 36.0662 36.6798C36.794 36.7425 37.4533 36.794 38.0571 36.3376C38.502 35.925 38.8773 35.5158 38.9207 34.8915C38.9193 34.7726 38.9179 34.6538 38.9165 34.5314C38.9159 34.4125 38.9152 34.2937 38.9146 34.1713C38.9153 33.8644 38.9153 33.8644 38.8268 33.6565C38.8005 33.4571 38.8005 33.4571 38.9358 33.2678C39.0048 33.2019 39.0738 33.136 39.1449 33.0682C39.2225 32.9928 39.3001 32.9175 39.38 32.8399C39.4654 32.7592 39.5507 32.6785 39.6386 32.5954C39.8161 32.4227 39.9935 32.2499 40.171 32.0772C40.4527 31.8058 40.7349 31.5349 41.0178 31.2647C41.2899 31.0037 41.5599 30.7407 41.8298 30.4775C41.9145 30.3978 41.9993 30.3181 42.0866 30.236C42.6012 29.7321 42.8211 29.393 42.9021 28.672C43.9139 29.136 44.4728 30.515 44.8552 31.504C45.1839 32.4181 45.3141 33.2713 45.3435 34.2384C45.271 34.1739 45.1985 34.1095 45.1238 34.0431C44.6702 33.7381 44.1093 33.7668 43.5857 33.8478C43.3537 33.9631 43.3537 33.9631 43.1951 34.1407C43.1493 34.5683 43.1492 34.7556 43.3904 35.1173C43.6382 35.1472 43.8571 35.1582 44.1045 35.1539C44.233 35.1547 44.3615 35.1554 44.494 35.1562C44.862 35.1166 45.0483 35.0402 45.3435 34.8243C45.4632 36.819 44.4727 38.7925 43.2006 40.2723C41.7059 41.9374 39.7382 42.8985 37.531 43.1251C37.3683 43.1279 37.2054 43.1291 37.0427 43.1251C37.0903 43.0589 37.1379 42.9927 37.1869 42.9245C37.3678 42.5747 37.3748 42.333 37.3723 41.941C37.3731 41.8219 37.3738 41.7029 37.3746 41.5802C37.3605 41.2754 37.3605 41.2754 37.2083 41.0839C36.9247 40.9003 36.6848 40.936 36.3591 40.9767C36.1373 41.1944 36.0715 41.3328 36.0238 41.6412C36.023 42.2635 36.0363 42.652 36.4568 43.1251C34.1065 43.0152 32.158 42.1443 30.4998 40.4884C30.391 40.3813 30.391 40.3813 30.28 40.2721C29.0557 38.988 28.1427 37.0151 28.1377 35.2333C28.1422 35.0969 28.1477 34.9605 28.156 34.8243C28.2052 34.8719 28.2544 34.9195 28.3052 34.9685C28.6392 35.1743 28.8956 35.1562 29.2852 35.1539C29.3836 35.1556 29.3836 35.1556 29.4841 35.1574C29.7672 35.1557 29.9642 35.15 30.2007 34.9865C30.3669 34.7268 30.3473 34.5384 30.3044 34.2384C30.0862 33.9464 29.9723 33.857 29.6083 33.7993C29.4976 33.8012 29.387 33.8031 29.2729 33.805C29.162 33.8052 29.0511 33.8053 28.9369 33.8054C28.6189 33.8514 28.5495 33.902 28.3513 34.1407C28.2869 34.1407 28.2224 34.1407 28.156 34.1407C28.1628 31.852 29.1075 29.9859 30.6951 28.379C30.752 28.3151 30.8089 28.2511 30.8675 28.1852C32.2015 26.7165 34.4072 25.8969 36.3591 25.9376Z" fill="#FDFDFD"/>
<path d="M42.796 26.2442C43.0308 26.4307 43.2601 26.6217 43.4884 26.8161C43.5715 26.8813 43.6545 26.9465 43.7401 27.0137C44.9743 28.0209 45.8466 29.5506 46.4181 31.0153C46.4447 31.0833 46.4713 31.1512 46.4987 31.2212C47.2714 33.3081 47.1623 36.0393 46.357 38.0893C46.3227 38.1777 46.2883 38.2662 46.2529 38.3574C45.2219 40.9301 43.1855 42.8983 40.6695 44.016C38.4292 44.9315 35.5096 45.0897 33.2345 44.1989C33.1634 44.1711 33.0922 44.1434 33.019 44.1148C31.9816 43.6952 31.085 43.1301 30.2071 42.4411C30.1321 42.3829 30.0571 42.3248 29.9798 42.2648C29.4229 41.8067 28.9851 41.2529 28.547 40.6833C28.4864 40.6058 28.4259 40.5284 28.3635 40.4487C27.8548 39.7647 27.5138 39.0215 27.1798 38.2419C27.1404 38.1502 27.101 38.0586 27.0604 37.9641C26.1173 35.583 26.2905 32.872 27.253 30.5331C27.575 29.7911 27.9579 29.1209 28.4493 28.4762C28.5175 28.3853 28.5858 28.2944 28.6561 28.2008C32.0472 23.8684 38.3601 22.9754 42.796 26.2442ZM31.086 27.9879C30.9905 28.0744 30.8949 28.1609 30.7965 28.25C29.7504 29.2286 29.0296 30.3441 28.547 31.6989C28.517 31.7776 28.487 31.8562 28.4562 31.9373C28.2079 32.655 28.1854 33.3875 28.1563 34.1403C28.4191 34.0211 28.4191 34.0211 28.6446 33.8473C28.8496 33.8299 29.0554 33.8211 29.2611 33.8168C29.3735 33.8132 29.4859 33.8095 29.6017 33.8057C29.9142 33.8473 29.9142 33.8473 30.1476 34.0258C30.3048 34.2379 30.3048 34.2379 30.3475 34.537C30.3048 34.8239 30.3048 34.8239 30.201 34.986C29.9136 35.1848 29.6222 35.1593 29.2855 35.1535C29.1567 35.1542 29.0279 35.155 28.8952 35.1558C28.5427 35.1164 28.4069 35.0661 28.1563 34.8239C28.0091 36.6196 28.8315 38.4481 29.9081 39.8471C30.038 39.9976 30.1702 40.1462 30.3048 40.2926C30.4126 40.4139 30.4126 40.4139 30.5226 40.5375C31.9263 42.0352 33.8464 42.8895 35.8712 43.1247C36.0665 43.1276 36.2618 43.1284 36.4571 43.1247C36.3604 43.0159 36.3604 43.0159 36.2618 42.9049C35.9569 42.4513 35.9855 41.8905 36.0665 41.3669C36.1943 41.1384 36.1943 41.1384 36.3595 40.9762C36.9324 40.9046 36.9324 40.9046 37.2086 41.0834C37.4015 41.3647 37.3748 41.6036 37.3727 41.9406C37.3738 42.1185 37.3738 42.1185 37.3749 42.2999C37.3341 42.6528 37.2482 42.8392 37.0431 43.1247C38.9405 43.0359 40.6486 42.4929 42.1212 41.2692C42.2054 41.1997 42.2896 41.1302 42.3764 41.0586C43.9782 39.678 45.1139 37.7277 45.3438 35.6051C45.356 35.3421 45.3538 35.0874 45.3438 34.8239C45.2788 34.8715 45.2137 34.9191 45.1466 34.9681C44.7807 35.1551 44.5141 35.1559 44.1048 35.1535C44.0388 35.1546 43.9728 35.1557 43.9047 35.1569C43.7131 35.1558 43.7131 35.1558 43.3907 35.1169C43.1496 34.7551 43.1496 34.5679 43.1954 34.1403C43.4128 33.9183 43.5516 33.8526 43.8599 33.805C44.4822 33.8042 44.8707 33.8174 45.3438 34.2379C45.3093 32.2564 44.6258 30.1964 43.1954 28.7692C43.0987 28.737 43.002 28.7047 42.9024 28.6715C42.8812 28.8604 42.8812 28.8604 42.8596 29.0531C42.7158 29.6913 42.2931 30.0417 41.8301 30.477C41.7001 30.6038 41.7001 30.6038 41.5675 30.7332C41.2918 31.0019 41.014 31.2681 40.7357 31.5341C40.4564 31.8018 40.1779 32.0703 39.9007 32.3402C39.7285 32.5078 39.555 32.6743 39.3804 32.8394C39.3028 32.9148 39.2252 32.9901 39.1453 33.0677C39.0762 33.1336 39.0072 33.1995 38.9361 33.2673C38.7764 33.4456 38.7764 33.4456 38.8265 33.657C38.8503 33.7198 38.874 33.7826 38.8985 33.8473C38.9613 34.5751 39.0127 35.2344 38.5564 35.8382C38.1437 36.2832 37.7345 36.6584 37.1102 36.7019C36.9319 36.6998 36.9319 36.6998 36.7501 36.6977C36.6313 36.697 36.5124 36.6964 36.39 36.6958C36.0665 36.6794 36.0665 36.6794 35.8743 36.6089C35.6657 36.5573 35.6657 36.5573 35.4912 36.7125C35.429 36.7778 35.3669 36.8432 35.3028 36.9105C35.2344 36.9809 35.1661 37.0513 35.0957 37.1238C35.0253 37.1987 34.9549 37.2736 34.8824 37.3507C34.742 37.4971 34.6013 37.6434 34.4605 37.7894C34.3986 37.855 34.3366 37.9206 34.2728 37.9881C34.0328 38.2231 33.9262 38.2411 33.5824 38.2724C33.2345 38.2419 33.2345 38.2419 33.0392 38.0832C32.8993 37.751 32.9274 37.6109 33.0392 37.2653C33.2173 37.075 33.4097 36.9113 33.6084 36.7425C34.2682 36.209 34.2682 36.209 34.6578 35.4842C34.6717 35.1207 34.6113 34.7772 34.5513 34.4199C34.4906 33.936 34.5799 33.6725 34.8302 33.2633C35.1988 32.8148 35.6919 32.4273 36.2618 32.2848C36.7208 32.2547 36.9626 32.2489 37.3887 32.4392C37.5999 32.5024 37.5999 32.5024 37.8243 32.4801C38.1966 32.2426 38.4766 31.9224 38.7738 31.5986C38.9087 31.4587 39.0436 31.3188 39.1787 31.1791C39.415 30.9332 39.6478 30.6841 39.8812 30.4355C40.16 30.1391 40.4395 29.8436 40.722 29.5508C40.8977 29.3684 41.0715 29.1841 41.2431 28.9979C41.4623 28.7698 41.6679 28.5617 41.9259 28.3786C42.3079 28.3715 42.3079 28.3715 42.6095 28.4762C42.7061 28.4762 42.8028 28.4762 42.9024 28.4762C41.6717 27.099 39.6205 26.0437 37.7675 25.9204C37.591 25.9191 37.4145 25.9268 37.2384 25.9372C37.254 25.9864 37.2696 26.0356 37.2857 26.0863C37.3542 26.4149 37.3565 26.7309 37.3604 27.0663C37.3625 27.132 37.3645 27.1976 37.3665 27.2653C37.3688 27.549 37.3695 27.744 37.2059 27.9818C36.9457 28.1476 36.7575 28.1285 36.4571 28.0856C36.1651 27.8674 36.0758 27.7535 36.0181 27.3894C36.0209 27.2234 36.0209 27.2234 36.0238 27.0541C36.0239 26.9432 36.024 26.8323 36.0242 26.718C36.0702 26.4 36.1207 26.3307 36.3595 26.1325C36.3595 26.068 36.3595 26.0036 36.3595 25.9372C34.4581 25.8527 32.4726 26.7229 31.086 27.9879Z" fill="#E9E7E9"/>
<path d="M43.7631 25.0523C43.967 25.2144 44.1672 25.38 44.3674 25.5467C44.4526 25.6158 44.5378 25.6849 44.6256 25.7561C45.9494 26.8798 46.9259 28.3846 47.6144 29.9657C47.6454 30.0353 47.6764 30.1049 47.7084 30.1767C48.2762 31.5397 48.4427 32.9042 48.4262 34.3663C48.4258 34.445 48.4254 34.5238 48.425 34.6049C48.4166 35.8414 48.3114 36.9751 47.883 38.1444C47.8611 38.2088 47.8391 38.2732 47.8165 38.3396C46.7997 41.3132 44.6226 43.6854 41.8302 45.0925C41.4164 45.29 40.9927 45.4494 40.5588 45.5968C40.4929 45.6193 40.4271 45.6418 40.3592 45.6649C39.2029 46.0345 38.0608 46.2018 36.8498 46.1904C36.6525 46.1888 36.4554 46.1904 36.2581 46.1922C33.3328 46.1972 30.4453 44.8438 28.3517 42.8319C26.0269 40.4744 25.0042 37.4398 25.0005 34.1728C25.0333 30.9241 26.4765 28.1135 28.7462 25.8351C32.7601 22.0768 39.3927 21.6909 43.7631 25.0523ZM30.2072 26.6209C30.1097 26.7012 30.0121 26.7816 29.9116 26.8643C27.9888 28.5045 26.8358 30.8719 26.4963 33.3592C26.2774 36.3228 27.1041 39.0014 29.0353 41.2694C29.1005 41.3525 29.1658 41.4355 29.2329 41.5211C30.2401 42.7552 31.7698 43.6276 33.2346 44.1991C33.3025 44.2257 33.3705 44.2523 33.4405 44.2797C35.4801 45.0349 38.1896 44.9553 40.2048 44.1868C40.2839 44.157 40.363 44.1271 40.4445 44.0964C43.094 43.0639 45.0792 41.0241 46.2228 38.4373C47.1502 36.1865 47.3173 33.3119 46.4182 31.0155C46.3904 30.9444 46.3627 30.8732 46.3341 30.8C45.9145 29.7626 45.3494 28.866 44.6603 27.9881C44.5731 27.8756 44.5731 27.8756 44.4841 27.7608C44.0259 27.2039 43.4721 26.7661 42.9025 26.328C42.8251 26.2674 42.7477 26.2069 42.6679 26.1445C41.9839 25.6358 41.2408 25.2948 40.4611 24.9608C40.3695 24.9214 40.2778 24.882 40.1834 24.8414C36.8381 23.5163 32.9314 24.3647 30.2072 26.6209Z" fill="#020202"/>
<path d="M57.4474 35.1989C57.5715 35.1979 57.6957 35.197 57.8236 35.196C57.9603 35.1955 58.097 35.1951 58.2336 35.1948C58.3729 35.1942 58.5122 35.1936 58.6515 35.1931C58.9439 35.192 59.2363 35.1915 59.5287 35.1911C59.9037 35.1906 60.2786 35.1883 60.6535 35.1855C60.9413 35.1837 61.2292 35.1831 61.5171 35.183C61.6553 35.1827 61.7935 35.1819 61.9317 35.1806C62.1251 35.179 62.3184 35.1793 62.5117 35.1798C62.6218 35.1794 62.7319 35.1791 62.8453 35.1787C63.1172 35.2146 63.1172 35.2146 63.2997 35.3428C63.4833 35.6168 63.4373 35.8871 63.4285 36.2095C63.4245 36.3958 63.4245 36.3958 63.4205 36.586C63.4171 36.6813 63.4137 36.7766 63.4102 36.8748C63.2507 36.8746 63.2507 36.8746 63.0881 36.8744C62.6884 36.8748 62.2887 36.879 61.889 36.8843C61.7171 36.8861 61.5451 36.8868 61.3731 36.8865C60.1322 36.8851 59.2394 36.9826 58.2405 37.7903C57.7346 38.4342 57.463 39.016 57.2883 39.8166C57.2495 39.9858 57.2105 40.1549 57.1712 40.324C57.1531 40.4033 57.135 40.4827 57.1164 40.5644C57.0625 40.781 57.0625 40.781 56.9534 41.0984C56.781 41.6355 56.7554 42.2422 56.9561 42.7746C57.2319 43.2482 57.5875 43.5953 58.1207 43.7692C58.3779 43.8169 58.6142 43.8138 58.8758 43.8067C59.4245 43.7943 59.9729 43.7869 60.5217 43.7837C60.8525 43.7814 61.1829 43.7767 61.5136 43.7665C63.1693 43.7212 64.3242 43.7954 65.5906 44.9309C65.6514 44.9894 65.7123 45.0478 65.775 45.1081C65.9395 45.2639 66.1097 45.4023 66.2886 45.5412C66.5352 45.7615 66.5352 45.7615 66.5718 46.085C66.5536 46.2149 66.5536 46.2149 66.5352 46.3474C66.4399 46.3522 66.3446 46.357 66.2464 46.3619C66.06 46.3729 66.06 46.3729 65.8699 46.384C65.6846 46.3942 65.6846 46.3942 65.4957 46.4046C65.1555 46.4217 65.1555 46.4217 64.875 46.6404C64.8038 47.1633 64.8038 47.1633 65.0215 47.6108C65.3639 47.7564 65.6761 47.7814 66.0469 47.8123C65.9489 48.5335 65.765 49.2259 65.5647 49.9241C65.54 50.0102 65.5153 50.0963 65.4899 50.1851C65.3698 50.5979 65.2457 51.0094 65.1153 51.4191C65.0936 51.4876 65.0719 51.5561 65.0495 51.6267C64.8905 52.0188 64.6329 52.306 64.2769 52.5364C64.0938 52.5974 64.0938 52.5974 63.8008 52.5974C63.7935 52.516 63.7862 52.4345 63.7787 52.3506C63.6683 51.4061 63.4113 50.8497 62.751 50.1743C61.8289 49.5537 60.8872 49.4302 59.7969 49.5701C58.5574 49.8621 57.531 50.6157 56.7695 51.6208C56.6084 51.9431 56.4473 52.2654 56.2812 52.5974C54.96 52.5974 53.6387 52.5974 52.2773 52.5974C52.3431 52.0057 52.412 51.525 52.5886 50.9739C52.8041 50.2804 52.9921 49.5812 53.1734 48.8781C53.2001 48.7751 53.2268 48.6721 53.2543 48.566C53.3195 48.3148 53.3844 48.0635 53.4492 47.8123C53.5621 47.8117 53.675 47.8111 53.7914 47.8105C54.8547 47.8049 55.9181 47.7978 56.9814 47.7892C57.5281 47.7849 58.0748 47.781 58.6215 47.7784C59.149 47.7759 59.6764 47.7719 60.2039 47.767C60.4052 47.7654 60.6066 47.7643 60.808 47.7637C61.0898 47.7627 61.3715 47.76 61.6532 47.7568C61.7367 47.757 61.8202 47.7571 61.9063 47.7572C62.2516 47.7518 62.4725 47.7472 62.7784 47.5775C62.9573 47.3832 62.9719 47.2863 62.9646 47.0249C62.9435 46.8346 62.9435 46.8346 62.9219 46.6404C62.5458 46.3897 62.2341 46.4151 61.7978 46.4139C61.713 46.4129 61.6282 46.412 61.5408 46.411C61.2602 46.4079 60.9796 46.4063 60.6991 46.4046C60.5046 46.4028 60.3102 46.4009 60.1157 46.3989C59.6037 46.3939 59.0918 46.39 58.5798 46.3864C58.0574 46.3825 57.5351 46.3775 57.0127 46.3726C55.9877 46.3631 54.9626 46.3549 53.9375 46.3474C54.135 45.1095 54.135 45.1095 54.2774 44.5949C54.3041 44.4972 54.3308 44.3995 54.3583 44.2988C54.3866 44.1974 54.4149 44.096 54.4441 43.9915C54.5054 43.7678 54.5667 43.5441 54.628 43.3204C54.6592 43.2072 54.6905 43.0939 54.7227 42.9772C54.8719 42.4349 55.0181 41.8918 55.1643 41.3486C55.1926 41.2439 55.2208 41.1391 55.25 41.0312C55.4393 40.3284 55.6232 39.6242 55.8052 38.9194C55.9946 38.1858 56.1971 37.4577 56.4159 36.7323C56.5229 36.375 56.6185 36.0188 56.6963 35.6541C56.8111 35.1184 56.9297 35.202 57.4474 35.1989Z" fill="#F5A35B"/>
<path d="M48.3711 32.8711C48.9189 32.8711 49.4668 32.8711 50.0312 32.8711C50.77 35.0873 49.5468 38.3526 48.5664 40.3418C46.8182 43.7549 44.0166 46.1206 40.3927 47.349C38.0312 48.0656 35.0603 48.1866 32.7461 47.2266C32.4002 47.1696 32.4002 47.1696 32.0625 47.2266C31.6451 47.624 31.5411 48.0771 31.4094 48.6182C31.3887 48.6971 31.368 48.776 31.3467 48.8573C31.0596 49.7915 31.0596 49.7915 31.2248 50.6949C31.5697 50.8935 31.8939 50.9055 32.2822 50.9131C32.355 50.916 32.4277 50.9189 32.5027 50.9219C32.6814 50.9287 32.8603 50.9333 33.0391 50.9375C33.0024 50.9837 32.9658 51.0299 32.9281 51.0775C32.8781 51.1421 32.8281 51.2067 32.7766 51.2732C32.7035 51.3667 32.7035 51.3667 32.629 51.462C32.3812 51.8238 32.1778 52.2143 31.9648 52.5977C30.9014 52.5977 29.8379 52.5977 28.7422 52.5977C28.9056 51.8621 29.0789 51.1313 29.261 50.4004C29.3058 50.2194 29.3058 50.2194 29.3516 50.0347C29.5525 49.2324 29.7758 48.4429 30.0361 47.658C30.12 47.2759 30.1137 47.0181 30.0117 46.6406C29.8245 46.4489 29.8245 46.4489 29.6211 46.3477C29.7412 45.6173 29.9032 44.91 30.1094 44.1992C30.4335 44.3196 30.7029 44.4574 30.9883 44.6509C31.493 44.9579 32.02 45.1762 32.5691 45.3894C32.6507 45.4219 32.7324 45.4544 32.8165 45.4879C34.0003 45.9353 35.194 46.1048 36.455 46.0929C36.6523 46.0913 36.8495 46.0929 37.0468 46.0947C38.2509 46.0968 39.4055 45.8931 40.5464 45.5054C40.619 45.4807 40.6916 45.4561 40.7664 45.4307C43.6833 44.3953 45.9782 42.1991 47.3056 39.4197C47.5853 38.7878 47.7961 38.1263 47.9805 37.4609C48.0065 37.37 48.0326 37.279 48.0595 37.1853C48.2982 36.2727 48.3268 35.3887 48.3406 34.4519C48.3438 34.2977 48.3472 34.1435 48.3507 33.9894C48.3591 33.6166 48.365 33.2439 48.3711 32.8711Z" fill="#D84554"/>
<path d="M63.0195 46.8359C63.0679 46.9326 63.0679 46.9326 63.1172 47.0312C63.6328 47.0312 64.1484 47.0312 64.6797 47.0312C64.7119 46.9668 64.7441 46.9023 64.7773 46.8359C64.8166 46.9991 64.8166 46.9991 64.8567 47.1655C64.9393 47.5409 64.9393 47.5409 65.2656 47.7148C65.4657 47.7589 65.4657 47.7589 65.6746 47.7759C65.7974 47.788 65.9203 47.8 66.0469 47.8125C65.9489 48.5337 65.765 49.2261 65.5647 49.9243C65.54 50.0104 65.5153 50.0966 65.4899 50.1853C65.3698 50.5981 65.2457 51.0096 65.1153 51.4193C65.0936 51.4878 65.0719 51.5564 65.0495 51.627C64.8905 52.0191 64.6329 52.3062 64.2769 52.5366C64.0938 52.5977 64.0938 52.5977 63.8008 52.5977C63.7898 52.4755 63.7898 52.4755 63.7787 52.3508C63.6683 51.4063 63.4113 50.8499 62.751 50.1746C61.8289 49.5539 60.8872 49.4305 59.7969 49.5703C58.5574 49.8623 57.531 50.6159 56.7695 51.6211C56.5278 52.1045 56.5278 52.1045 56.2812 52.5977C54.96 52.5977 53.6387 52.5977 52.2773 52.5977C52.3431 52.0059 52.412 51.5252 52.5886 50.9741C52.8041 50.2806 52.9921 49.5814 53.1734 48.8783C53.2001 48.7753 53.2268 48.6723 53.2543 48.5662C53.3195 48.315 53.3844 48.0638 53.4492 47.8125C53.5621 47.8119 53.675 47.8114 53.7914 47.8108C54.8547 47.8052 55.9181 47.7981 56.9814 47.7895C57.5281 47.7851 58.0748 47.7813 58.6215 47.7787C59.149 47.7761 59.6764 47.7722 60.2039 47.7673C60.4052 47.7656 60.6066 47.7645 60.808 47.7639C61.0898 47.763 61.3715 47.7602 61.6532 47.7571C61.7785 47.7573 61.7785 47.7573 61.9063 47.7575C62.2463 47.7521 62.4728 47.7457 62.7769 47.5852C62.9826 47.3535 62.9927 47.1383 63.0195 46.8359Z" fill="#FDA85E"/>
<path d="M42.3144 28.2676C42.7711 28.4403 42.7711 28.4403 42.9025 28.6722C42.9635 28.9834 42.9635 28.9834 42.9025 29.3557C42.4892 29.9378 41.933 30.4303 41.4224 30.9259C41.2728 31.0728 41.1233 31.2198 40.9738 31.3669C40.7405 31.5959 40.5069 31.8245 40.2723 32.0522C40.0442 32.2738 39.8177 32.4969 39.5913 32.7203C39.5204 32.7885 39.4494 32.8566 39.3762 32.9269C39.3119 32.9908 39.2477 33.0547 39.1814 33.1206C39.1243 33.1763 39.0672 33.2321 39.0083 33.2895C38.8755 33.4521 38.8755 33.4521 38.9281 33.6543C38.9506 33.7182 38.9731 33.7821 38.9962 33.8479C39.0584 34.5693 39.1131 35.2332 38.6606 35.8323C38.2183 36.3077 37.7824 36.7534 37.1103 36.8001C36.932 36.798 36.932 36.798 36.7502 36.7959C36.6313 36.7953 36.5125 36.7947 36.39 36.794C36.0666 36.7776 36.0666 36.7776 35.8743 36.7072C35.6658 36.6555 35.6658 36.6555 35.4913 36.8108C35.4291 36.8761 35.3669 36.9415 35.3029 37.0088C35.2345 37.0792 35.1661 37.1495 35.0957 37.222C35.0253 37.2969 34.955 37.3718 34.8825 37.449C34.742 37.5954 34.6014 37.7417 34.4606 37.8877C34.3986 37.9533 34.3367 38.0188 34.2728 38.0864C34.0366 38.3177 33.9254 38.3393 33.5885 38.3767C33.2345 38.3401 33.2345 38.3401 32.9904 38.1326C32.8439 37.8518 32.8439 37.8518 32.834 37.586C32.972 37.1753 33.1863 37.0187 33.5108 36.7431C34.1706 36.2096 34.1706 36.2096 34.5602 35.4848C34.5741 35.1212 34.5136 34.7779 34.4533 34.4205C34.3929 33.9347 34.4877 33.673 34.7398 33.2635C35.1559 32.7346 35.6133 32.3926 36.2619 32.1878C36.7339 32.1503 36.9625 32.1528 37.3992 32.3424C37.6056 32.4055 37.6056 32.4055 37.8244 32.3831C38.1964 32.1451 38.4766 31.8254 38.7738 31.5015C38.9088 31.3616 39.0437 31.2218 39.1787 31.0821C39.415 30.8362 39.6479 30.5871 39.8813 30.3384C40.1601 30.0421 40.4396 29.7465 40.7221 29.4538C40.8977 29.2713 41.0715 29.087 41.2432 28.9008C41.8353 28.2848 41.8353 28.2848 42.3144 28.2676Z" fill="#030303"/>
<path d="M56.5742 42.0508C56.7695 42.1484 56.7695 42.1484 56.8466 42.351C56.887 42.4773 56.887 42.4773 56.9282 42.6062C57.1352 43.1493 57.4305 43.4405 57.9414 43.7109C58.2597 43.8125 58.543 43.816 58.8758 43.8069C59.4245 43.7946 59.9729 43.7872 60.5217 43.784C60.8525 43.7817 61.1829 43.777 61.5136 43.7668C63.1693 43.7215 64.3242 43.7956 65.5906 44.9312C65.6819 45.0189 65.6819 45.0189 65.775 45.1083C65.9395 45.2642 66.1097 45.4025 66.2886 45.5415C66.5352 45.7617 66.5352 45.7617 66.5718 46.0852C66.5536 46.2151 66.5536 46.2151 66.5352 46.3477C66.441 46.3502 66.3468 46.3527 66.2498 46.3553C66.0648 46.3636 66.0648 46.3636 65.876 46.3721C65.7536 46.3766 65.6313 46.3811 65.5052 46.3858C65.1249 46.4529 65.01 46.5355 64.7773 46.8359C64.729 46.9326 64.729 46.9326 64.6797 47.0312C64.4252 47.0444 64.1714 47.0541 63.9167 47.0618C63.8447 47.0659 63.7726 47.07 63.6984 47.0742C63.4876 47.0789 63.4876 47.0789 63.1172 47.0312C62.939 46.7974 62.939 46.7974 62.8242 46.543C62.4646 46.3032 62.2819 46.321 61.8525 46.3165C61.7496 46.315 61.7496 46.315 61.6446 46.3135C61.4179 46.3105 61.1912 46.3089 60.9646 46.3072C60.8073 46.3054 60.6501 46.3035 60.4929 46.3015C60.0792 46.2965 59.6654 46.2926 59.2517 46.289C58.8295 46.2851 58.4073 46.2801 57.9851 46.2752C57.1567 46.2657 56.3284 46.2575 55.5 46.25C55.5461 46.0481 55.5924 45.8463 55.6387 45.6444C55.6644 45.532 55.6901 45.4196 55.7167 45.3038C55.8125 44.8976 55.922 44.4966 56.0371 44.0955C56.2289 43.4168 56.4089 42.7364 56.5742 42.0508Z" fill="#FDC068"/>
<path d="M60.6826 38.3302C60.7515 38.3303 60.8204 38.3304 60.8914 38.3305C61.1491 38.331 61.4068 38.3324 61.6645 38.3336C62.5285 38.3367 62.5285 38.3367 63.4101 38.3397C63.4101 39.6933 63.4101 41.0468 63.4101 42.4413C62.72 42.4458 62.0301 42.4497 61.34 42.452C61.1052 42.453 60.8704 42.4543 60.6355 42.456C60.2983 42.4584 59.9612 42.4595 59.624 42.4604C59.4661 42.4619 59.4661 42.4619 59.3049 42.4634C59.1583 42.4635 59.1583 42.4635 59.0088 42.4635C58.9227 42.4639 58.8366 42.4643 58.7479 42.4648C58.5273 42.4413 58.5273 42.4413 58.2343 42.246C58.1483 41.5936 58.3582 40.9675 58.5273 40.3417C58.5664 40.1802 58.5664 40.1802 58.6062 40.0155C58.8044 39.2817 59.0597 38.8589 59.6991 38.4374C60.009 38.2825 60.3425 38.3279 60.6826 38.3302Z" fill="#BCD5F5"/>
<path d="M39.1914 50.9375C43.123 50.9375 47.0547 50.9375 51.1055 50.9375C51.0078 51.5234 51.0078 51.5234 50.7148 52.5977C47.041 52.5977 43.3672 52.5977 39.582 52.5977C39.5176 52.2432 39.4531 51.8887 39.3867 51.5234C39.3223 51.3301 39.2578 51.1367 39.1914 50.9375Z" fill="#D84554"/>
<path d="M37.5681 51.1992C37.9229 51.4866 38.0816 51.7892 38.154 52.2383C38.1986 53.1261 37.8905 53.8073 37.3239 54.4772C36.639 55.1948 35.8146 55.71 34.8093 55.7589C34.3094 55.7461 33.9257 55.6399 33.5276 55.3317C33.1392 54.856 33.0732 54.4592 33.1007 53.8501C33.2339 52.8346 33.8178 52.0769 34.6166 51.4579C35.4844 50.8899 36.6282 50.6372 37.5681 51.1992Z" fill="#5B515E"/>
<path d="M61.7013 51.0963C62.1641 51.536 62.3604 51.8379 62.3849 52.4818C62.3485 53.4343 61.9134 54.1629 61.2619 54.8439C60.5124 55.4626 59.7592 55.7869 58.7831 55.7571C58.2734 55.6887 57.9661 55.4608 57.612 55.088C57.3131 54.6283 57.2715 54.1098 57.3556 53.5744C57.7973 52.4198 58.4288 51.7244 59.5041 51.133C60.1844 50.8484 61.0255 50.7826 61.7013 51.0963Z" fill="#5B515E"/>
<path d="M19.2994 43.8587C19.42 43.8581 19.42 43.8581 19.543 43.8576C19.808 43.8568 20.0729 43.8589 20.3379 43.8611C20.5224 43.8614 20.7069 43.8614 20.8913 43.8614C21.2776 43.8617 21.6638 43.8633 22.05 43.8659C22.5451 43.8693 23.0402 43.87 23.5353 43.8699C23.9161 43.8699 24.2968 43.871 24.6776 43.8724C24.8602 43.873 25.0427 43.8734 25.2253 43.8735C25.4803 43.874 25.7353 43.8757 25.9904 43.8778C26.0658 43.8777 26.1413 43.8776 26.219 43.8775C26.5844 43.8819 26.8738 43.889 27.1796 44.1014C27.364 44.3474 27.3756 44.4753 27.3627 44.785C27.2601 45.1367 27.1796 45.2497 26.8866 45.4686C26.6016 45.5072 26.3535 45.5221 26.0686 45.5192C25.9451 45.5202 25.9451 45.5202 25.8192 45.5213C25.5473 45.523 25.2755 45.5218 25.0037 45.5205C24.8147 45.5208 24.6257 45.5212 24.4367 45.5216C24.0407 45.5222 23.6447 45.5214 23.2487 45.5196C22.741 45.5173 22.2333 45.5186 21.7256 45.521C21.3354 45.5224 20.9452 45.5219 20.5549 45.5209C20.3677 45.5206 20.1805 45.521 19.9933 45.5219C19.7317 45.5229 19.4702 45.5214 19.2086 45.5192C19.1312 45.52 19.0537 45.5208 18.974 45.5216C18.6243 45.5162 18.4291 45.4982 18.1475 45.2824C17.9885 45.0622 17.9444 44.9561 17.945 44.6874C17.9428 44.6229 17.9407 44.5585 17.9385 44.4921C18.1353 43.8662 18.741 43.8505 19.2994 43.8587Z" fill="black"/>
<path d="M53.4492 47.8125C53.9971 47.8125 54.5449 47.8125 55.1094 47.8125C55.0459 48.0667 55.0459 48.0667 54.9812 48.326C54.9262 48.5495 54.8713 48.773 54.8164 48.9966C54.7745 49.1639 54.7745 49.1639 54.7317 49.3346C54.6921 49.497 54.6921 49.497 54.6516 49.6626C54.6271 49.7618 54.6025 49.8611 54.5772 49.9633C54.5057 50.3007 54.5057 50.3007 54.5234 50.8398C55.877 50.8882 55.877 50.8882 57.2578 50.9375C57.0645 51.2275 56.8711 51.5176 56.6719 51.8164C56.543 52.0742 56.4141 52.332 56.2812 52.5977C54.96 52.5977 53.6387 52.5977 52.2773 52.5977C52.3431 52.0058 52.4122 51.5253 52.5886 50.9741C52.8069 50.2646 53.001 49.5504 53.1868 48.8318C53.2128 48.7312 53.2388 48.6306 53.2656 48.5269C53.327 48.2889 53.3882 48.0507 53.4492 47.8125Z" fill="#FB8958"/>
<path d="M21.9981 46.9864C22.168 46.9866 22.168 46.9866 22.3413 46.9867C22.5804 46.9873 22.8195 46.9888 23.0586 46.9912C23.4249 46.9948 23.7911 46.9952 24.1574 46.9952C24.3898 46.9962 24.6221 46.9973 24.8545 46.9986C24.9642 46.9988 25.0739 46.9991 25.1868 46.9993C25.3399 47.0012 25.3399 47.0012 25.496 47.0031C25.6304 47.0042 25.6304 47.0042 25.7675 47.0053C26.0229 47.0331 26.181 47.0921 26.3983 47.2267C26.6016 47.4881 26.5932 47.6288 26.5814 47.9653C26.496 48.301 26.496 48.301 26.3285 48.466C26.0572 48.6215 25.8859 48.6316 25.5742 48.6334C25.4679 48.6346 25.3617 48.6359 25.2522 48.6371C25.0809 48.6367 25.0809 48.6367 24.906 48.6363C24.7883 48.6368 24.6705 48.6373 24.5492 48.6378C24.3004 48.6385 24.0515 48.6383 23.8026 48.6375C23.4213 48.6367 23.0401 48.6395 22.6588 48.6426C22.4171 48.6427 22.1753 48.6427 21.9336 48.6424C21.8194 48.6435 21.7051 48.6446 21.5874 48.6457C21.4812 48.6448 21.3749 48.6439 21.2655 48.6429C21.1721 48.6429 21.0787 48.6429 20.9825 48.6429C20.6625 48.5798 20.5461 48.4533 20.3436 48.2033C20.2883 48.008 20.2883 48.008 20.2887 47.8127C20.2866 47.7482 20.2844 47.6838 20.2822 47.6174C20.5213 46.8572 21.3583 46.9782 21.9981 46.9864Z" fill="black"/>
<path d="M58.4297 35.3125C60.041 35.3125 61.6523 35.3125 63.3125 35.3125C63.4591 35.6058 63.4192 35.878 63.4163 36.2036C63.4154 36.3287 63.4145 36.4539 63.4136 36.5828C63.4125 36.6792 63.4113 36.7757 63.4102 36.875C63.2507 36.8748 63.2507 36.8748 63.0881 36.8747C62.6884 36.875 62.2887 36.8792 61.889 36.8845C61.7171 36.8863 61.5451 36.8871 61.3731 36.8867C60.1826 36.8854 59.1365 36.9338 58.2344 37.821C58.1699 37.8956 58.1055 37.9701 58.0391 38.0469C57.9102 38.1436 57.7812 38.2402 57.6484 38.3398C57.8528 37.3179 58.1434 36.3146 58.4297 35.3125Z" fill="#FDC068"/>
<path d="M60.6757 38.4375C61.5781 38.4375 62.4804 38.4375 63.4101 38.4375C63.4101 39.2109 63.4101 39.9844 63.4101 40.7812C62.9808 40.7835 62.5514 40.7854 62.1221 40.7866C61.9759 40.7871 61.8297 40.7878 61.6836 40.7886C61.4739 40.7898 61.2642 40.7904 61.0545 40.7908C60.8651 40.7916 60.8651 40.7916 60.6718 40.7923C60.3828 40.7812 60.3828 40.7812 60.2851 40.6836C60.2064 39.8965 60.4614 39.1876 60.6757 38.4375Z" fill="#DAE9FE"/>
<path d="M24.2011 50.1073C24.2926 50.1058 24.3841 50.1043 24.4784 50.1027C24.9029 50.1051 25.1585 50.1156 25.5286 50.3366C25.7692 50.6083 25.8124 50.7709 25.8124 51.1327C25.6043 51.5785 25.6043 51.5785 25.3241 51.7186C24.9544 51.7474 24.5839 51.7458 24.2133 51.7492C24.1103 51.752 24.0073 51.7548 23.9012 51.7577C23.802 51.7586 23.7028 51.7594 23.6006 51.7602C23.4644 51.7624 23.4644 51.7624 23.3254 51.7645C23.0044 51.705 22.8901 51.5781 22.6874 51.328C22.6321 51.1327 22.6321 51.1327 22.6325 50.9374C22.6303 50.8729 22.6282 50.8085 22.626 50.7421C22.8515 50.025 23.5867 50.0972 24.2011 50.1073Z" fill="black"/>
<path d="M29.9143 33.7497C30.2378 33.9573 30.2378 33.9573 30.4026 34.238C30.4575 34.5371 30.4575 34.5371 30.4026 34.824C30.1742 35.1372 30.0547 35.2077 29.6671 35.2699C29.5392 35.2698 29.4113 35.2696 29.2795 35.2695C29.0877 35.2727 29.0877 35.2727 28.892 35.276C28.5471 35.2146 28.5471 35.2146 28.3094 34.9823C28.1349 34.6901 28.0817 34.5703 28.1565 34.238C28.5515 33.5797 29.2287 33.6409 29.9143 33.7497Z" fill="#090909"/>
<path d="M36.811 25.9375C37.2541 26.0688 37.2541 26.0688 37.4335 26.3281C37.4654 26.5805 37.4789 26.8026 37.4762 27.0544C37.4781 27.1832 37.48 27.312 37.482 27.4447C37.4335 27.793 37.4335 27.793 37.2535 28.031C37.0429 28.1836 37.0429 28.1836 36.756 28.2385C36.457 28.1836 36.457 28.1836 36.1762 28.0188C35.8512 27.5121 35.8767 27.0104 35.9687 26.4258C36.2225 26.0105 36.3247 25.9375 36.811 25.9375Z" fill="#090909"/>
<path d="M44.7578 33.7503C45.0752 33.8968 45.0752 33.8968 45.2461 34.1409C45.3107 34.4356 45.2904 34.6118 45.2461 34.9222C45.0088 35.1833 44.8606 35.2145 44.5072 35.2575C44.314 35.2577 44.314 35.2577 44.1169 35.2579C44.0513 35.2598 43.9856 35.2618 43.918 35.2638C43.6049 35.2635 43.4348 35.2565 43.2018 35.0385C43.0457 34.7177 43.0475 34.492 43.0977 34.1409C43.4894 33.5953 44.1511 33.6699 44.7578 33.7503Z" fill="#070707"/>
<path d="M37.0428 40.8793C37.2568 41.0353 37.2568 41.0353 37.4334 41.2699C37.4818 41.5934 37.4818 41.5934 37.4761 41.9535C37.476 42.0724 37.4759 42.1912 37.4757 42.3136C37.4313 42.653 37.3894 42.7963 37.1404 43.0277C36.6955 43.0913 36.4837 43.1149 36.115 42.8568C35.8883 42.3656 35.8974 41.899 35.9685 41.3676C36.2183 40.848 36.486 40.7898 37.0428 40.8793Z" fill="#060606"/>
<path d="M37.1406 33.7495C37.3848 33.896 37.3848 33.896 37.5313 34.1401C37.6085 34.5328 37.592 34.8202 37.3848 35.1655C37.0395 35.3727 36.7521 35.3893 36.3594 35.312C36.1152 35.1655 36.1152 35.1655 35.9688 34.9214C35.8915 34.5287 35.9081 34.2413 36.1152 33.896C36.4605 33.6888 36.748 33.6723 37.1406 33.7495Z" fill="#5B515E"/>
<path d="M63.5078 50.9375C64.0557 50.9375 64.6035 50.9375 65.168 50.9375C65.0627 51.6744 64.9618 51.9882 64.3806 52.439C64.0938 52.5977 64.0938 52.5977 63.8008 52.5977C63.7878 52.5105 63.7748 52.4234 63.7615 52.3337C63.7442 52.2194 63.727 52.1051 63.7092 51.9873C63.6922 51.874 63.6752 51.7607 63.6577 51.644C63.6075 51.3137 63.6075 51.3137 63.5078 50.9375Z" fill="#F68656"/>
<path d="M60.1875 52.5974C60.4255 52.75 60.4255 52.75 60.5781 52.988C60.6331 53.3298 60.6331 53.3298 60.5781 53.6716C60.3449 53.9315 60.186 54.0406 59.8457 54.1172C59.4755 54.0339 59.3333 53.8781 59.1133 53.574C59.1133 53.2279 59.1466 53.0011 59.3208 52.7012C59.6196 52.5319 59.8524 52.5562 60.1875 52.5974Z" fill="#040304"/>
<path d="M35.8712 52.5976C36.1651 52.8212 36.33 52.9678 36.4205 53.33C36.3287 53.6972 36.1753 53.8425 35.8712 54.0624C35.495 54.0689 35.2854 54.05 34.9984 53.8C34.8616 53.5023 34.8473 53.3125 34.8946 52.9882C35.1657 52.5921 35.4019 52.5114 35.8712 52.5976Z" fill="#030203"/>
</g>
<defs>
<clipPath id="clip0_2101_30888">
<rect width="50" height="50" fill="white" transform="translate(18 15)"/>
</clipPath>
</defs>
</svg>
